
<svg width="100%" height="100%" viewBox="0 0 846 311" version="1.1" xmlns="http://www.w3.org/2000/svg" xmlns:xlink="http://www.w3.org/1999/xlink">
    <!-- Generator: Sketch 49.3 (51167) - http://www.bohemiancoding.com/sketch -->
    <desc>Created with Sketch.</desc>
    <defs>
        <rect id="path-1" x="0.56" y="85.51" width="88.21" height="119.92" rx="4.3"></rect>
        <filter x="-18.7%" y="-12.1%" width="137.4%" height="127.5%" filterUnits="objectBoundingBox" id="filter-2">
            <feMorphology radius="0.5" operator="dilate" in="SourceAlpha" result="shadowSpreadOuter1"></feMorphology>
            <feOffset dx="0" dy="2" in="shadowSpreadOuter1" result="shadowOffsetOuter1"></feOffset>
            <feGaussianBlur stdDeviation="5" in="shadowOffsetOuter1" result="shadowBlurOuter1"></feGaussianBlur>
            <feComposite in="shadowBlurOuter1" in2="SourceAlpha" operator="out" result="shadowBlurOuter1"></feComposite>
            <feColorMatrix values="0 0 0 0 0.89936756   0 0 0 0 0.89936756   0 0 0 0 0.89936756  0 0 0 0.5 0" type="matrix" in="shadowBlurOuter1"></feColorMatrix>
        </filter>
        <rect id="path-3" x="149.69" y="85.51" width="88.21" height="119.92" rx="4.3"></rect>
        <filter x="-18.7%" y="-12.1%" width="137.4%" height="127.5%" filterUnits="objectBoundingBox" id="filter-4">
            <feMorphology radius="0.5" operator="dilate" in="SourceAlpha" result="shadowSpreadOuter1"></feMorphology>
            <feOffset dx="0" dy="2" in="shadowSpreadOuter1" result="shadowOffsetOuter1"></feOffset>
            <feGaussianBlur stdDeviation="5" in="shadowOffsetOuter1" result="shadowBlurOuter1"></feGaussianBlur>
            <feComposite in="shadowBlurOuter1" in2="SourceAlpha" operator="out" result="shadowBlurOuter1"></feComposite>
            <feColorMatrix values="0 0 0 0 0.89936756   0 0 0 0 0.89936756   0 0 0 0 0.89936756  0 0 0 0.5 0" type="matrix" in="shadowBlurOuter1"></feColorMatrix>
        </filter>
        <rect id="path-5" x="298.15" y="0.32" width="88.21" height="119.92" rx="4.3"></rect>
        <filter x="-18.7%" y="-12.1%" width="137.4%" height="127.5%" filterUnits="objectBoundingBox" id="filter-6">
            <feMorphology radius="0.5" operator="dilate" in="SourceAlpha" result="shadowSpreadOuter1"></feMorphology>
            <feOffset dx="0" dy="2" in="shadowSpreadOuter1" result="shadowOffsetOuter1"></feOffset>
            <feGaussianBlur stdDeviation="5" in="shadowOffsetOuter1" result="shadowBlurOuter1"></feGaussianBlur>
            <feComposite in="shadowBlurOuter1" in2="SourceAlpha" operator="out" result="shadowBlurOuter1"></feComposite>
            <feColorMatrix values="0 0 0 0 0.89936756   0 0 0 0 0.89936756   0 0 0 0 0.89936756  0 0 0 0.5 0" type="matrix" in="shadowBlurOuter1"></feColorMatrix>
        </filter>
        <rect id="path-7" x="297.94" y="170.7" width="88.21" height="119.92" rx="4.3"></rect>
        <filter x="-18.7%" y="-12.1%" width="137.4%" height="127.5%" filterUnits="objectBoundingBox" id="filter-8">
            <feMorphology radius="0.5" operator="dilate" in="SourceAlpha" result="shadowSpreadOuter1"></feMorphology>
            <feOffset dx="0" dy="2" in="shadowSpreadOuter1" result="shadowOffsetOuter1"></feOffset>
            <feGaussianBlur stdDeviation="5" in="shadowOffsetOuter1" result="shadowBlurOuter1"></feGaussianBlur>
            <feComposite in="shadowBlurOuter1" in2="SourceAlpha" operator="out" result="shadowBlurOuter1"></feComposite>
            <feColorMatrix values="0 0 0 0 0.89936756   0 0 0 0 0.89936756   0 0 0 0 0.89936756  0 0 0 0.5 0" type="matrix" in="shadowBlurOuter1"></feColorMatrix>
        </filter>
    </defs>
    <g id="Page-1" stroke="none" stroke-width="1" fill="none" fill-rule="evenodd">
        <g id="Group-23" transform="translate(2.000000, 8.000000)">
            <rect id="Rectangle-path" fill="#425B9A" fill-rule="nonzero" x="457.79" y="106.3" width="41.75" height="5.91" rx="1.69"></rect>
            <g id="Group-15" transform="translate(448.000000, 0.000000)" fill-rule="nonzero">
                <g id="Rectangle-path">
                    <use fill="black" fill-opacity="1" filter="url(#filter-2)" xlink:href="#path-1"></use>
                    <use stroke="#425B9A" stroke-width="1" fill="#FFFFFF" fill-rule="evenodd" xlink:href="#path-1"></use>
                </g>
                <rect id="Rectangle-path" fill="#425B9A" opacity="0.5" x="8.83" y="115.73" width="71.67" height="38.05" rx="7.14"></rect>
                <g id="Rectangle-path">
                    <use fill="black" fill-opacity="1" filter="url(#filter-4)" xlink:href="#path-3"></use>
                    <use stroke="#425B9A" stroke-width="1" fill="#FFFFFF" fill-rule="evenodd" xlink:href="#path-3"></use>
                </g>
                <rect id="Rectangle-path" fill="#425B9A" opacity="0.5" x="172.89" y="104.24" width="42.27" height="22.44" rx="1.46"></rect>
                <rect id="Rectangle-path" fill="#425B9A" x="166.71" y="147.71" width="53.96" height="5.91" rx="1.69"></rect>
                <rect id="Rectangle-path" fill="#425B9A" x="166.71" y="158.73" width="53.96" height="5.91" rx="1.69"></rect>
                <g id="Rectangle-path">
                    <use fill="black" fill-opacity="1" filter="url(#filter-6)" xlink:href="#path-5"></use>
                    <use stroke="#425B9A" stroke-width="1" fill="#FFFFFF" fill-rule="evenodd" xlink:href="#path-5"></use>
                </g>
                <rect id="Rectangle-path" fill="#425B9A" opacity="0.5" x="313.54" y="18.93" width="57.43" height="26.8" rx="1.46"></rect>
                <rect id="Rectangle-path" fill="#425B9A" opacity="0.5" x="313.54" y="57.88" width="57.43" height="26.8" rx="1.46"></rect>
                <rect id="Rectangle-path" fill="#425B9A" x="308.95" y="106.28" width="18.84" height="8.27" rx="3.83"></rect>
                <rect id="Rectangle-path" fill="#425B9A" x="332.84" y="106.28" width="18.84" height="8.27" rx="3.83"></rect>
                <rect id="Rectangle-path" fill="#425B9A" x="356.73" y="106.28" width="18.84" height="8.27" rx="3.83"></rect>
                <g id="Rectangle-path">
                    <use fill="black" fill-opacity="1" filter="url(#filter-8)" xlink:href="#path-7"></use>
                    <use stroke="#425B9A" stroke-width="1" fill="#FFFFFF" fill-rule="evenodd" xlink:href="#path-7"></use>
                </g>
                <rect id="Rectangle-path" fill="#425B9A" opacity="0.5" x="304.75" y="184.72" width="26.36" height="26.8" rx="1.46"></rect>
                <rect id="Rectangle-path" fill="#425B9A" x="315.07" y="227.84" width="53.96" height="5.91" rx="1.69"></rect>
                <rect id="Rectangle-path" fill="#425B9A" x="315.07" y="239.79" width="53.96" height="5.91" rx="1.69"></rect>
                <rect id="Rectangle-path" fill="#425B9A" x="315.07" y="251.74" width="53.96" height="5.91" rx="1.69"></rect>
                <path d="M139.52,142.61 L138.17,143.26 L127.23,148.52 L126.23,148.99 C126.095272,149.052811 125.94061,149.057306 125.802461,149.002425 C125.664313,148.947544 125.554897,148.838142 125.5,148.7 C125.488618,148.633819 125.488618,148.566181 125.5,148.5 L125.5,145.39 C125.5,145.097289 125.262711,144.86 124.97,144.86 L98.38,144.86 C98.0856282,144.86005 97.8454513,144.624321 97.84,144.33 L97.84,139.94 C97.8454513,139.645679 98.0856282,139.40995 98.38,139.41 L125,139.41 C125.294321,139.404549 125.53005,139.164372 125.53,138.87 L125.53,135.69 C125.519682,135.623733 125.519682,135.556267 125.53,135.49 C125.586854,135.353646 125.69709,135.246539 125.835024,135.193633 C125.972957,135.140727 126.126544,135.146642 126.26,135.21 L127.26,135.68 L138.17,140.99 L139.52,141.65 C139.706278,141.73721 139.825278,141.924319 139.825278,142.13 C139.825278,142.335681 139.706278,142.52279 139.52,142.61 Z" id="Shape" stroke="#FFFFFF" fill="#FFFFFF"></path>
                <path d="M287.55,115.64 L286.67,116.85 L279.51,126.61 L278.88,127.48 C278.789335,127.596575 278.655599,127.671791 278.508891,127.688719 C278.362183,127.705647 278.214831,127.662864 278.1,127.57 C278.049209,127.525684 278.008322,127.471167 277.98,127.41 L276.52,124.67 C276.378661,124.408831 276.055523,124.30702 275.79,124.44 L252.29,136.95 C252.165474,137.01695 252.019361,137.031371 251.884149,136.990056 C251.748938,136.948742 251.635839,136.855117 251.57,136.73 L249.51,132.84 C249.44305,132.715474 249.428629,132.569361 249.469944,132.434149 C249.511258,132.298938 249.604883,132.185839 249.73,132.12 L273.23,119.63 C273.355117,119.564161 273.448742,119.451062 273.490056,119.315851 C273.531371,119.180639 273.51695,119.034526 273.45,118.91 L271.96,116.1 C271.922014,116.043817 271.90117,115.977809 271.9,115.91 C271.879907,115.762153 271.924291,115.612797 272.021865,115.499917 C272.119439,115.387038 272.260801,115.32151 272.41,115.32 L273.48,115.32 L285.6,114.88 L287.1,114.83 C287.292479,114.83 287.469827,114.934353 287.563303,115.102609 C287.656779,115.270866 287.651687,115.476575 287.55,115.64 Z" id="Shape" stroke="#FFFFFF" fill="#FFFFFF"></path>
                <path d="M287.47,166.9 L285.98,166.9 L273.87,166.9 L272.8,166.9 C272.652222,166.900422 272.510979,166.839126 272.41035,166.730902 C272.309722,166.622679 272.258846,166.477357 272.27,166.33 C272.272469,166.263757 272.289542,166.198878 272.32,166.14 L273.66,163.33 C273.721624,163.202791 273.729881,163.056236 273.682935,162.92291 C273.635989,162.789584 273.537731,162.680535 273.41,162.62 L249.41,151.1 C249.142617,150.969791 249.030847,150.647895 249.16,150.38 L251.06,146.43 C251.118377,146.300316 251.227323,146.200201 251.361467,146.152967 C251.495612,146.105733 251.643249,146.115502 251.77,146.18 L275.77,157.71 C276.038199,157.833417 276.355997,157.72307 276.49,157.46 L277.87,154.59 C277.945252,154.422109 278.10362,154.306481 278.286454,154.285937 C278.469287,154.265394 278.649367,154.342995 278.76,154.49 L279.43,155.32 L286.96,164.84 L287.89,166.02 C288.030443,166.179318 288.062217,166.40709 287.970738,166.598761 C287.879258,166.790433 287.682193,166.908985 287.47,166.9 Z" id="Shape" stroke="#FFFFFF" fill="#FFFFFF"></path>
            </g>
            <g id="Group-22" transform="translate(0.000000, 22.000000)" stroke="#33313F">
                <path d="M296.524164,0.0225153196 C297.101109,-0.0680551643 297.686976,0.117666618 298.108399,0.524723091 C298.529823,0.931779563 298.738541,1.51355463 298.672791,2.0978932 C296.850856,19.8145337 298.019408,37.9614354 299.992124,55.6401116 C300.909374,63.7264925 302.153317,72.2810989 305.709233,78.2794472 C306.176234,79.028111 306.072292,80.0016709 305.457931,80.6332294 C304.465112,81.411271 303.218689,81.7860604 301.964841,81.6835731 L245.886917,81.9999417 C245.310412,82.0045018 244.763972,81.7413024 244.40562,81.2864579 C244.047268,80.8316135 243.916974,80.2358549 244.052416,79.671469 C248.563277,60.3097119 247.595767,39.1762908 245.786396,19.0932133 C244.894276,9.20985888 244.379108,3.90752148 251.704546,3.2115106 C259.24359,2.52815447 266.782634,2.21178589 274.321679,1.57904873 C276.131049,1.42719181 290.631144,0.996930545 296.524164,0.0225153196 Z" id="Shape" stroke-width="3" fill="#FFFFFF" fill-rule="nonzero"></path>
                <path d="M253.478037,116.022512 C252.901076,115.931955 252.315192,116.117649 251.893757,116.524642 C251.472322,116.931636 251.263598,117.513322 251.329349,118.097571 C253.151336,135.81149 251.982751,153.955605 249.997414,171.631566 C249.092704,179.716705 247.848727,188.269997 244.292712,194.280077 C243.822871,195.023577 243.927233,195.995635 244.54402,196.620845 C245.536867,197.398767 246.783325,197.773499 248.037208,197.671027 L304.116696,198 C304.69254,197.995694 305.235281,197.728282 305.59203,197.273093 C305.94878,196.817904 306.080927,196.224203 305.951248,195.659232 C301.44026,176.300449 302.407798,155.170274 304.217219,135.090281 C305.109364,125.208444 305.624546,119.906921 298.298904,119.211017 C290.973262,118.515113 283.220396,118.211446 275.681141,117.578806 C273.87172,117.426973 259.371221,116.996777 253.478037,116.022512 Z" id="Shape" stroke-width="3" fill="#FFFFFF" fill-rule="nonzero"></path>
                <path d="M270.085142,148.183266 C276.620324,147.874856 283.167777,147.955758 289.693569,148.425553 C290.565696,148.510539 291.259718,149.20219 291.357008,150.083307 L291.974497,155.298858 C292.037955,155.53558 291.981311,155.788738 291.823276,155.974712 C291.684615,156.075436 291.514101,156.120843 291.344407,156.102232 C288.597211,156.178744 285.850015,155.859945 283.11542,156.102232 C281.414175,156.242503 279.725532,156.574054 278.074694,156.765334 C275.284022,157.013977 272.479596,157.065109 269.681884,156.918357 C265.739996,156.987137 261.807966,156.497825 258,155.464634 C258,155.464634 258.226833,151.14172 258.226833,150.733657 C258.226833,148.718848 258.163824,148.54032 260.21792,148.489313 L270.085142,148.183266 Z" id="Shape" stroke-width="2" stroke-linecap="round"></path>
                <path d="M270.085141,171.817274 C276.620464,172.127678 283.16829,172.042551 289.693566,171.562349 C290.565693,171.4774 291.259715,170.786059 291.357006,169.905334 L291.974495,164.704859 C292.037897,164.464208 291.981475,164.207403 291.823273,164.016561 C291.684612,163.915882 291.514099,163.870496 291.344404,163.889098 C288.597208,163.812621 285.850012,164.144024 283.115418,163.889098 C281.414173,163.761636 279.72553,163.430233 278.074692,163.239039 C275.284358,162.98413 272.479485,162.933013 269.681883,163.086084 C265.739996,163.017335 261.807966,163.506428 258,164.539158 C258,164.539158 258.226833,168.847395 258.226833,169.268021 C258.226833,171.281931 258.163824,171.447632 260.21792,171.511363 L270.085141,171.817274 Z" id="Shape" stroke-width="2" stroke-linecap="round"></path>
                <path d="M270.085141,181.18272 C276.620464,180.872327 283.16829,180.957451 289.693566,181.437636 C290.565693,181.522582 291.259715,182.213899 291.357006,183.094592 L291.974495,188.294886 C292.037897,188.535529 291.981475,188.792325 291.823273,188.98316 C291.684612,189.083836 291.514099,189.12922 291.344404,189.110618 C288.597208,189.187093 285.850012,188.855702 283.115418,189.110618 C281.414173,189.238076 279.72553,189.582214 278.074692,189.773401 C275.283727,190.017675 272.479302,190.064524 269.681883,189.913605 C265.740578,189.986674 261.808535,189.501886 258,188.473327 C258,188.473327 258.226833,184.152495 258.226833,183.731883 C258.226833,181.718044 258.163824,181.552349 260.21792,181.501365 L270.085141,181.18272 Z" id="Shape" stroke-width="2" stroke-linecap="round"></path>
                <path d="M278.344311,73 C278.935537,74.2871263 279.132037,75.6950149 278.913054,77.0749415 C278.915239,77.1858259 278.883953,77.2951454 278.822572,77.3911007 C278.677996,77.5177721 278.480128,77.5817893 278.279681,77.5667447 L266,78 C266,78 266.685077,74.7213115 266.775559,74.4871194 C267.202116,73.1522248 268.274972,73.5035129 269.658052,73.4332553 L278.344311,73 Z" id="Shape" stroke-width="2" fill="#FFFFFF" fill-rule="nonzero" stroke-linecap="round"></path>
                <path d="M296.35405,73 C296.940749,74.2882156 297.132729,75.6960679 296.909724,77.0749415 C296.916512,77.1847876 296.88968,77.2941979 296.832188,77.3911007 C296.685914,77.5152174 296.489389,77.5788162 296.289437,77.5667447 L284,78 C284,78 284.697823,74.7213115 284.788281,74.4871194 C285.201806,73.1522248 286.274386,73.5035129 287.670032,73.4332553 L296.35405,73 Z" id="Shape" stroke-width="2" fill="#FFFFFF" fill-rule="nonzero" stroke-linecap="round"></path>
                <path d="M289.364716,13.0044418 L290.978319,27.1664963 C291.087125,28.2001225 290.78335,29.2349027 290.135672,30.0368978 C289.487993,30.8388928 288.551102,31.3403808 287.536806,31.4279873 C277.305088,32.2541819 267.02293,32.1852663 256.802711,31.2219937 C254.923749,31.0373447 253.465822,29.4659708 253.38641,27.5398596 C253.194755,25.0153791 252.832512,22.5074422 252.302271,20.0339707 C251.886264,17.4590517 251.432438,14.9742549 254.407519,14.2146538 C257.382599,13.4550527 261.454426,13.9957857 264.706844,13.9314127 C268.606385,13.8541651 272.49332,13.7425853 276.367648,13.5966732 C277.451787,13.5966732 289.364716,12.9400689 289.364716,13.0044418 Z" id="Shape" stroke-width="3"></path>
                <path d="M289.389929,62.9890556 L290.978319,48.8327125 C291.087125,47.7995032 290.78335,46.7651403 290.135672,45.9634687 C289.487993,45.161797 288.551102,44.6605113 287.536806,44.5729402 C277.305218,43.7492284 267.023596,43.8138073 256.802711,44.7659812 C254.919175,44.9512689 253.459684,46.5291922 253.38641,48.4594998 C253.194755,50.9829622 252.832512,53.4898876 252.302271,55.9623617 C251.886264,58.5362422 251.432438,61.020037 254.407519,61.7793317 C257.382599,62.5386265 261.454426,61.9981116 264.706844,62.0624586 C268.602183,62.139675 272.484915,62.2426302 276.367648,62.3970631 C277.477,62.4356713 289.389929,63.0920108 289.389929,62.9890556 Z" id="Shape" stroke-width="3"></path>
                <path d="M273,125.385755 C272.583542,129.915586 272.321174,134.453667 272.212895,139 C267.626995,138.961694 263.058039,138.44312 258.582233,137.452927 C257.868528,137.419555 257.206514,137.07435 256.774733,136.510412 C256.342952,135.946474 256.185871,135.221882 256.345855,134.532052 C256.258399,131.710191 254.759151,125.410508 258.769639,125.014458 C259.969037,124.890692 272.987506,125.608534 273,125.385755 Z" id="Shape" stroke-width="2" stroke-linecap="round"></path>
                <path d="M49.7295274,62.0233723 C50.9236046,61.8936909 52.1126612,62.3082627 52.9680072,63.1524881 C53.8233531,63.9967135 54.2543872,65.181169 54.1419589,66.3784364 C52.7003974,83.0833075 53.8411113,100.189798 55.7214088,116.844467 C56.561275,124.249331 57.6769181,132.043264 60.6352529,137.879301 C61.1589174,138.896885 61.1163417,140.113907 60.5228504,141.092314 C59.9293592,142.070721 58.870372,142.669693 57.7270594,142.673637 L2.22067743,142.999953 C1.54936683,143.004352 0.912578458,142.702483 0.490532963,142.179778 C0.0684874669,141.657073 -0.0928918955,140.970408 0.0520676532,140.314121 C4.45196379,121.212082 3.48674441,100.352956 1.69419413,80.5982853 C0.791651334,70.7962535 0.290238669,65.5375451 7.58579294,64.8472611 C15.1069829,64.1820784 22.6281729,63.868313 30.0866863,63.2282315 C31.6786715,63.1027254 43.060739,62.7513081 49.7295274,62.0233723 Z" id="Shape" stroke-width="3" fill="#FFFFFF" fill-rule="nonzero" stroke-linecap="round"></path>
                <path d="M127.608205,62.0233103 C126.990395,61.9279056 126.363781,62.1286012 125.914464,62.565792 C125.465147,63.0029828 125.244798,63.6263913 125.318861,64.250869 C127.117631,81.8814894 125.947801,100.005717 123.972927,117.62368 C123.067253,125.711237 121.82195,134.229118 118.274725,140.240995 C117.759577,141.121827 117.987429,142.251753 118.803035,142.860907 C119.754638,143.467537 120.874381,143.751421 121.998054,143.670929 L177.986357,144 C178.609011,144.000316 179.196749,143.710635 179.578169,143.215437 C179.959589,142.720239 180.091737,142.075292 179.936073,141.468683 C175.470594,122.142081 176.426584,101.0309 178.237933,81.0334983 C179.131029,71.1487068 179.64676,65.8455985 172.32589,65.1494864 C164.778602,64.4786875 157.231313,64.1622729 149.684024,63.5167872 C147.834939,63.4028779 133.620878,62.9852107 127.608205,62.0233103 Z" id="Shape" stroke-width="3" fill="#FFFFFF" fill-rule="nonzero"></path>
                <path d="M17,74 L46,112" id="Shape" stroke-width="2" fill="#FFFFFF" fill-rule="nonzero" stroke-linecap="round"></path>
                <path d="M46,71 L18,114" id="Shape" stroke-width="2" fill="#FFFFFF" fill-rule="nonzero" stroke-linecap="round"></path>
                <path d="M144,75 L160,96" id="Shape" stroke-width="2" fill="#FFFFFF" fill-rule="nonzero" stroke-linecap="round"></path>
                <path d="M160,74 L145,97" id="Shape" stroke-width="2" fill="#FFFFFF" fill-rule="nonzero" stroke-linecap="round"></path>
                <path d="M26.0850103,124.183222 C32.624576,123.874874 39.1764003,123.955775 45.7065826,124.425508 C46.5744551,124.519701 47.2637433,125.206611 47.3700685,126.083255 L47.9749724,131.29878 C48.0356895,131.537676 47.9845807,131.791555 47.8363486,131.987382 C47.6920271,132.075281 47.5258518,132.119531 47.3574663,132.114901 C44.6101941,132.191412 41.8503198,131.859863 39.1156498,132.114901 C37.4143574,132.24242 35.7382694,132.573969 34.0747835,132.765248 C31.2840404,133.014014 28.479529,133.065146 25.681741,132.91827 C21.7438506,132.98787 17.8157591,132.498536 14.0121354,131.464554 C13.9365224,131.464554 14.2389744,127.154414 14.2389744,126.733601 C14.2389744,124.718802 14.1633614,124.553027 16.2175144,124.489268 L26.0850103,124.183222 Z" id="Shape" stroke-width="2" stroke-linecap="round"></path>
                <path d="M146.091087,105.182678 C152.628981,104.872341 159.179361,104.957468 165.707219,105.437605 C166.579128,105.522554 167.272977,106.213899 167.370243,107.094628 L167.974979,112.295131 C168.03568,112.533924 167.984585,112.787692 167.836394,112.983433 C167.697266,113.08303 167.527207,113.128307 167.357644,113.110897 C164.611134,113.187375 161.852025,112.85597 159.118113,113.110897 C157.417293,113.23836 155.741669,113.582511 154.078645,113.76096 C151.289006,114.01587 148.484834,114.066988 145.687929,113.913916 C141.747025,113.982665 137.815976,113.493569 134.008961,112.460834 C133.945968,112.460834 134.235737,108.152573 134.235737,107.731944 C134.235737,105.718024 134.172744,105.552322 136.226327,105.48859 L146.091087,105.182678 Z" id="Shape" stroke-width="2" stroke-linecap="round"></path>
                <path d="M155.87391,119.183314 C149.341862,118.874811 142.797554,118.955753 136.274891,119.425722 C135.403182,119.510751 134.709493,120.202745 134.61225,121.084302 L134.032844,126.289689 C133.959077,126.528197 134.011398,126.788364 134.171398,126.978638 C134.309991,127.079412 134.480424,127.124841 134.650037,127.106221 C137.395915,127.18277 140.141793,126.863813 142.887671,127.106221 C144.5881,127.233804 146.263337,127.578278 147.925979,127.769652 C150.71564,128.012073 153.518289,128.063223 156.314762,127.922752 C160.254837,127.993076 164.185187,127.503495 167.991041,126.468305 C168.05402,126.468305 167.764317,122.143241 167.764317,121.734975 C167.764317,119.706405 167.839892,119.540547 165.786781,119.489514 L155.87391,119.183314 Z" id="Shape" stroke-width="2" stroke-linecap="round"></path>
                <path d="M75,109.333333 C75,109.333333 93.6524496,108.583333 97,109.333333" id="Shape" stroke-width="3"></path>
                <path d="M96.2771084,100 C96.2771084,100 104,108.279402 104,110.229776 C104,112.18015 94,119 94,119" id="Shape" stroke-width="3"></path>
                <path d="M196,92 C196,92 212.600249,84.3669725 216,84" id="Shape" stroke-width="3"></path>
                <path d="M213,75 C213,75 223.250963,79.4214934 223.950729,81.1674808 C224.650495,82.9134682 217.665109,93 217.665109,93" id="Shape" stroke-width="3"></path>
                <path d="M196,113 C196,113 213.371795,120.575758 216,123" id="Shape" stroke-width="3"></path>
                <path d="M220.031434,113 C220.031434,113 223.733071,124.049154 222.869356,125.802579 C222.00564,127.556003 210,129 210,129" id="Shape" stroke-width="3"></path>
                <path d="M262.35405,73 C262.940749,74.2882156 263.132729,75.6960679 262.909724,77.0749415 C262.916512,77.1847876 262.88968,77.2941979 262.832188,77.3911007 C262.685914,77.5152174 262.489389,77.5788162 262.289437,77.5667447 L250,78 C250,78 250.697823,74.7213115 250.788281,74.4871194 C251.201806,73.1522248 252.287309,73.5035129 253.670032,73.4332553 L262.35405,73 Z" id="Shape" stroke-width="2" fill="#FFFFFF" fill-rule="nonzero" stroke-linecap="round"></path>
            </g>
        </g>
    </g>
</svg>
