
<svg width="100%" height="100%" viewBox="0 0 670 241" version="1.1" xmlns="http://www.w3.org/2000/svg" xmlns:xlink="http://www.w3.org/1999/xlink">
    <!-- Generator: Sketch 49.3 (51167) - http://www.bohemiancoding.com/sketch -->
    <desc>Created with Sketch.</desc>
    <defs></defs>
    <g id="Page-1" stroke="none" stroke-width="1" fill="none" fill-rule="evenodd" opacity="0.8">
        <g id="Group-21">
            <g id="Group">
                <path d="M31.04,168.49 L656.1,168.49" id="Shape" stroke="#3F3D56" stroke-width="3"></path>
                <path d="M86.57,168.48 C86.57,168.48 116.46,172.63 100.98,140.56 C85.5,108.49 142.98,114.56 142.98,114.56" id="Shape" stroke="#3F3D56" stroke-width="3"></path>
                <path d="M285.64,168.48 C285.64,168.48 315.53,164.34 300.05,196.41 C284.57,228.48 342.05,222.41 342.05,222.41" id="Shape" stroke="#3F3D56" stroke-width="3"></path>
                <path d="M572.27,168.48 C572.27,168.48 542.37,164.34 557.86,196.41 C573.35,228.48 515.86,222.41 515.86,222.41" id="Shape" stroke="#3F3D56" stroke-width="3"></path>
                <path d="M515.86,222.4 L350.93,222.4" id="Shape" stroke="#3F3D56" stroke-width="3"></path>
                <circle id="Oval" fill="#425B9A" fill-rule="nonzero" cx="31.04" cy="168.49" r="18.25"></circle>
                <circle id="Oval" fill="#3ACC6C" fill-rule="nonzero" cx="143.29" cy="114.3" r="18.25"></circle>
                <circle id="Oval" fill="#425B9A" fill-rule="nonzero" cx="143.29" cy="168.49" r="18.25"></circle>
                <circle id="Oval" fill="#425B9A" fill-rule="nonzero" cx="215.73" cy="168.49" r="18.25"></circle>
                <circle id="Oval" fill="#FF6584" fill-rule="nonzero" cx="342.35" cy="222.13" r="18.25"></circle>
                <circle id="Oval" fill="#FF6584" fill-rule="nonzero" cx="438.03" cy="222.13" r="18.25"></circle>
                <circle id="Oval" fill="#425B9A" fill-rule="nonzero" cx="433.04" cy="168.49" r="18.25"></circle>
                <circle id="Oval" fill="#425B9A" fill-rule="nonzero" cx="651.48" cy="168.49" r="18.25"></circle>
                <circle id="Oval" fill="#425B9A" fill-rule="nonzero" cx="562.12" cy="168.49" r="18.25"></circle>
                <rect id="Rectangle-path" fill="#425B9A" fill-rule="nonzero" x="0.38" y="0.66" width="61.23" height="42.2"></rect>
                <rect id="Rectangle-path" fill="#3ACC6C" fill-rule="nonzero" x="112.9" y="0.66" width="61.23" height="42.2"></rect>
                <rect id="Rectangle-path" fill="#FF6584" fill-rule="nonzero" x="311.48" y="0.66" width="61.23" height="42.2"></rect>
            </g>
        </g>
    </g>
</svg>
