
<svg width="100%" height="100%" viewBox="0 0 181 57" version="1.1" xmlns="http://www.w3.org/2000/svg" xmlns:xlink="http://www.w3.org/1999/xlink">
    <g id="Page-1" stroke="none" stroke-width="1" fill="none" fill-rule="evenodd">
        <g id="Desktop-HD" transform="translate(-175.000000, -2656.000000)" fill="#F7F7F7" fill-rule="nonzero">
            <g id="eamode-logo" transform="translate(175.000000, 2656.000000)">
                <g id="Group-4">
                    <path d="M20.3280986,17.0111965 C20.3280986,17.0800369 20.2947287,17.1476697 20.2947287,17.2503266 L20.2947287,38.5449771 C20.2947287,38.6476339 20.3280986,38.7164745 20.3280986,38.7841072 C20.3614685,38.8529476 20.3960301,38.9205804 20.4294,38.9556044 C20.4973316,38.9894208 20.5307015,39.024445 20.598633,39.0582613 C20.6665646,39.0582613 20.7333044,39.0920777 20.8346058,39.0920777 L36.0703433,39.0920777 C36.2050146,39.0920777 36.3408777,39.0582613 36.4076175,38.9894208 C36.4755491,38.9556044 36.5422888,38.8529476 36.5422888,38.7502908 L36.5422888,38.7164745 L36.5756587,38.6826581 C36.6090287,38.6488417 36.6435903,38.6138177 36.6435903,38.6138177 C36.6435903,38.5800013 36.6769601,38.5449771 36.6769601,38.5111608 L36.6769601,34.6766261 C36.6769601,34.2998151 36.4743572,34.0945015 36.1025213,34.0945015 L26.0009795,34.0945015 L25.8686918,34.0945015 L25.8686918,33.9580282 L25.8686918,30.0896772 L25.8686918,29.953204 L26.0033631,29.953204 L33.5366153,29.953204 C33.6379168,29.953204 33.7058483,29.953204 33.7725881,29.9193876 C33.8405197,29.8855713 33.8738896,29.8505471 33.9418211,29.8167307 C34.0097527,29.7140739 34.0764924,29.5776008 34.0764924,29.474944 L34.0764924,26.1887175 C34.0764924,26.0860607 34.0431226,26.0172201 34.0431226,25.9495875 C34.0097527,25.880747 33.975191,25.8469306 33.9418211,25.8131142 C33.8738896,25.7792979 33.8405197,25.7442738 33.7725881,25.7442738 C33.7046565,25.7104574 33.6033551,25.7104574 33.5366153,25.7104574 L26.0033631,25.7104574 L25.8686918,25.7104574 L25.8686918,25.5739842 L25.8686918,21.80829 L25.8686918,21.6718168 L26.0033631,21.6718168 L35.7664389,21.6718168 C35.8677404,21.6718168 35.9356719,21.6380005 36.0024117,21.6380005 C36.0703433,21.6041841 36.137083,21.5353435 36.1716447,21.4665031 C36.2395763,21.3976626 36.2729462,21.3300299 36.306316,21.2611894 C36.306316,21.192349 36.3396859,21.1247162 36.3396859,21.0558758 L36.3396859,17.2901815 C36.3396859,17.1875247 36.306316,17.1186843 36.306316,17.0160274 C36.2729462,16.947187 36.2383845,16.8795542 36.2050146,16.8445302 C36.1037131,16.7418733 35.9690418,16.6730328 35.7652471,16.6730328 L20.8346058,16.6730328 C20.7333044,16.6730328 20.6653728,16.7068492 20.598633,16.7068492 C20.5307015,16.7406656 20.4973316,16.7756896 20.4294,16.8433224 C20.3960301,16.8747233 20.3614685,16.9423561 20.3280986,17.0111965 Z M47.0168584,17.1138533 C46.9834885,17.1138533 46.9834885,17.1476697 46.9834885,17.1826938 L38.8078659,38.6476339 C38.774496,38.7164745 38.774496,38.7841072 38.774496,38.8529476 C38.774496,38.886764 38.8078659,38.9217882 38.8424276,38.9556044 C38.9103592,38.9894208 38.943729,39.024445 39.0116606,39.0582613 C39.0795922,39.0582613 39.1463319,39.0920777 39.2476334,39.0920777 L43.6727189,39.0920777 C43.8419519,39.0920777 43.9766232,39.0232372 44.0779247,38.9556044 C44.1792261,38.886764 44.2471577,38.7502908 44.3138974,38.6138177 C44.4151989,38.3058472 44.5165003,38.0655093 44.6178018,37.8263793 L44.8883362,37.038941 C44.9896377,36.7998109 45.0909391,36.5594732 45.1922405,36.2853191 L45.462775,35.4978807 L45.4961449,35.4290403 L45.5974463,35.4290403 L53.6038359,35.4290403 L53.6717675,35.4290403 L53.7051374,35.4978807 C53.8743704,35.9423245 54.0769733,36.4906328 54.2795761,37.038941 L54.5834805,37.8263793 C54.651412,38.0655093 54.7527135,38.3058472 54.8540149,38.5800013 L54.8540149,38.6138177 C54.8873848,38.6826581 54.9219465,38.7502908 54.9886863,38.8191313 C55.0220561,38.8879718 55.0566178,38.9217882 55.1233576,38.9556044 C55.1567276,38.9894208 55.224659,39.024445 55.2925906,39.0582613 C55.393892,39.0582613 55.4618236,39.0920777 55.563125,39.0920777 L59.8869091,39.0920777 C60.0215805,39.0920777 60.122882,39.0582613 60.1908134,39.0232372 C60.258745,39.0232372 60.3254849,38.9894208 60.3600465,38.9205804 C60.3934163,38.886764 60.427978,38.85174 60.427978,38.7841072 C60.427978,38.7152667 60.427978,38.6476339 60.3946081,38.5787935 L52.48952,17.9012916 L52.1176841,17.0450129 C52.0843142,17.0111965 52.0497525,16.9761725 52.0163827,16.9423561 C51.9830128,16.9085397 51.9484511,16.8735156 51.8817113,16.8058828 C51.8483415,16.7720664 51.7804099,16.7370424 51.7124783,16.703226 C51.6791085,16.703226 51.6111769,16.6694096 51.5098754,16.6694096 L47.6592287,16.6694096 C47.6592287,16.6694096 47.6258588,16.6694096 47.5579273,16.703226 C47.5245574,16.703226 47.4899957,16.703226 47.4566258,16.7370424 C47.423256,16.7370424 47.3886943,16.7708588 47.3553244,16.7708588 C47.3219545,16.8046751 47.2873928,16.8396992 47.2540229,16.8396992 C47.2206531,16.8735156 47.1860914,16.9085397 47.1527215,16.9423561 C47.1193516,16.9761725 47.0847899,17.0111965 47.0514201,17.0111965 C47.0502282,17.0462207 47.0168584,17.0800369 47.0168584,17.1138533 Z M49.1787504,24.4399281 C49.2800518,24.165774 49.3813533,23.8916199 49.4826547,23.6186734 L49.6173261,23.2768866 L49.7186275,23.6186734 L52.0163827,30.6029614 L52.0843142,30.7744586 L51.9150812,30.7744586 L47.2873928,30.7744586 L47.0847899,30.7744586 L47.1527215,30.6029614 C47.2540229,30.3288073 47.3553244,30.054653 47.4566258,29.7817067 C47.5579273,29.4737362 47.6592287,29.1995821 47.7605302,28.9254279 C47.8284617,28.6512738 47.9297632,28.3433033 48.0310646,28.0353328 C48.1323661,27.7611787 48.2336675,27.4532082 48.334969,27.1114213 C48.4029005,26.8034508 48.504202,26.5292967 48.6055034,26.2213262 L48.9094077,25.2974147 C49.0095174,25.0220528 49.077449,24.7140823 49.1787504,24.4399281 Z" id="Shape"></path>
                    <path d="M17.3546032,0.0993888658 C31.3401616,0.0993888658 45.3602818,0.0993888658 59.3804019,0.0993888658 C62.6578016,0.0993888658 64.9543651,1.57160864 66.7456129,3.76242625 C68.2317647,5.5764329 69.245971,7.90493145 70.2256155,10.2322223 C72.0836032,14.6138575 73.9082211,18.9967005 75.7316472,23.3783357 C77.3191004,27.1102135 77.3191004,29.1983743 75.7316472,32.9302521 C73.9070293,37.3118875 72.0836032,41.6947304 70.2256155,46.0763656 C69.245971,48.4048642 68.2329565,50.7321549 66.7456129,52.5461617 C64.9555568,54.7369792 62.6578016,56.209199 59.3804019,56.209199 C45.3602818,56.209199 31.3401616,56.209199 17.3546032,56.209199 C14.0772034,56.209199 11.7806401,54.7707956 9.98939213,52.5799779 C8.43530877,50.7309473 7.38773265,48.4036564 6.47601963,46.0413415 C4.8540047,42.0353096 3.23318157,37.9966689 1.64453654,33.9568205 C-0.145519604,29.5063448 -0.213451162,26.9725326 1.57660498,22.4882406 C3.1986199,18.4145758 4.81944304,14.3409111 6.47482784,10.2660386 C7.38654086,7.90372372 8.434117,5.5764329 9.98820036,3.72740216 C11.7806401,1.53779227 14.0783952,0.0993888658 17.3546032,0.0993888658 Z M59.3804019,5.91942751 C45.3602818,5.91942751 31.3401616,5.91942751 17.3546032,5.91942751 C16.0710543,5.91942751 15.1247796,6.50155214 14.3477379,7.42546365 C13.3347234,8.69236976 12.5231201,10.5414005 11.7460784,12.4242476 C9.98939213,16.8747233 8.19933599,21.3590154 6.40808808,25.8094911 C5.69897795,27.5896814 5.8002794,28.9930607 6.50938952,30.773251 C8.26607577,35.1548862 10.022762,39.502705 11.7460784,43.885548 C12.5231201,45.7683951 13.3335316,47.6174259 14.3477379,48.8843319 C15.1247796,49.8082434 16.0710543,50.390368 17.3546032,50.390368 C31.3401616,50.390368 45.3602818,50.390368 59.3804019,50.390368 C60.6305809,50.390368 61.5768556,49.8082434 62.3193356,48.8843319 C63.3669117,47.5836095 64.1773234,45.7345787 64.987735,43.8517316 C66.8790925,39.3324155 68.7716419,34.7792829 70.6629995,30.2599668 C71.2374383,28.8904038 71.3387397,27.6923382 70.7643009,26.2889588 C68.8383817,21.70201 66.9136542,17.0800369 64.987735,12.458064 C64.1773234,10.5752169 63.36572,8.72618612 62.3193356,7.42546365 C61.5768556,6.50155214 60.6305809,5.91942751 59.3804019,5.91942751 Z" id="Shape"></path>
                </g>
                <path d="M86.2384334,16.6215536 C86.2044073,16.6872838 86.2044073,16.7518608 86.2044073,16.8498795 L84,37.1824091 C84,37.3461578 84.0340261,37.476465 84.1373197,37.5744837 C84.2065872,37.6402138 84.3439069,37.7047908 84.5164681,37.7047908 L88.8572305,37.7047908 C89.0638178,37.7047908 89.2363789,37.6390606 89.3396725,37.5744837 C89.4429662,37.476465 89.4769923,37.3461578 89.4769923,37.1824091 L89.4769923,37.1501205 L90.8210245,25.9379389 L90.890292,25.3163853 L91.0968792,25.9044973 L94.5420253,37.1824091 L94.5420253,37.2146975 C94.5420253,37.246986 94.5420253,37.2804277 94.5760514,37.3450046 C94.6100775,37.3772932 94.6453189,37.4430233 94.7133711,37.5087535 C94.7826387,37.541042 94.8506909,37.6067722 94.8859322,37.6390606 C94.9551998,37.6390606 94.9892259,37.6713492 95.023252,37.6713492 L99.0541336,37.6713492 C99.0881597,37.6713492 99.1234011,37.6390606 99.1914534,37.6390606 C99.2254795,37.6067722 99.2947469,37.541042 99.3287732,37.5087535 C99.3980406,37.4430233 99.4320667,37.3784464 99.4660929,37.3450046 C99.500119,37.2792745 99.500119,37.246986 99.5353604,37.2146975 L99.5353604,37.1824091 L102.980506,25.8722088 L103.153067,25.2840969 L103.222335,25.9056505 L104.566367,37.1501205 L104.566367,37.1824091 C104.566367,37.3461578 104.635635,37.476465 104.738928,37.5744837 C104.842222,37.6402138 104.979542,37.7047908 105.187344,37.7047908 L109.528107,37.7047908 C109.700668,37.7047908 109.837988,37.6390606 109.941281,37.5744837 C110.010549,37.5087535 110.078601,37.4107348 110.078601,37.2481392 L110.078601,37.1824091 C109.872014,35.4826501 109.699453,33.7828912 109.526891,32.0831324 C109.35433,30.3833735 109.147743,28.7159031 108.975182,27.0161443 C108.768595,25.3163853 108.596034,23.648915 108.423473,21.949156 C108.216885,20.2493972 108.044324,18.5496383 107.871763,16.8498795 C107.871763,16.7518608 107.837737,16.6861306 107.802496,16.6215536 C107.768469,16.5558235 107.733228,16.5235349 107.665176,16.4578048 C107.595908,16.3920746 107.527856,16.3597862 107.458589,16.3597862 L107.458589,16.3274976 C107.389321,16.3274976 107.321269,16.2952091 107.252001,16.2952091 L102.015622,16.2952091 C101.671715,16.2952091 101.463913,16.458958 101.326593,16.7853024 L97.1243658,29.9912988 L97.0210721,30.3833735 L96.8837524,29.9912988 L92.715551,16.7853024 C92.6122574,16.458958 92.4056701,16.2952091 92.0957893,16.2952091 L86.7913582,16.2952091 C86.6880645,16.2952091 86.6187971,16.3274976 86.5507448,16.3609392 C86.4814773,16.3609392 86.413425,16.3932278 86.3781837,16.458958 C86.307701,16.5235349 86.2724597,16.5558235 86.2384334,16.6215536 Z M119.135629,28.1935213 C119.066361,27.8014467 119.032335,27.4093721 119.032335,26.9838557 C119.032335,26.5917811 119.066361,26.1997064 119.135629,25.8076318 C119.204895,25.4478456 119.30819,25.055771 119.445509,24.6959849 C119.618071,24.3361987 119.789417,24.0098542 119.997219,23.6823566 C120.203806,23.3883006 120.410393,23.0942447 120.686248,22.8324771 C120.962103,22.5384212 121.237958,22.3089422 121.547838,22.1129049 C121.857719,21.8845791 122.202842,21.7208303 122.546748,21.5570814 C123.269804,21.2630254 124.097368,21.0992767 124.957743,21.0992767 C125.370917,21.0992767 125.784092,21.1315651 126.197267,21.1972953 C126.576415,21.295314 126.955563,21.3933326 127.333497,21.5570814 C127.677403,21.7208303 128.022526,21.8834259 128.332406,22.1129049 C128.676313,22.3089422 128.952168,22.5372681 129.228022,22.8324771 C129.468636,23.0942447 129.710464,23.3883006 129.917052,23.6823566 C130.12364,24.0087011 130.2962,24.3361987 130.43352,24.6959849 C130.57084,25.055771 130.709375,25.4478456 130.777427,25.8076318 C130.846695,26.1997064 130.88072,26.5917811 130.88072,26.9838557 C130.88072,27.4082189 130.846695,27.8014467 130.777427,28.1935213 C130.708159,28.585596 130.57084,28.945382 130.43352,29.3051682 C130.2962,29.6649544 130.12364,29.9912988 129.917052,30.2853548 C129.710464,30.6116993 129.469852,30.9069085 129.228022,31.1675228 C128.952168,31.4292902 128.676313,31.6576161 128.332406,31.8870951 C128.022526,32.0831324 127.677403,32.2791697 127.333497,32.41063 C126.954348,32.5743788 126.5752,32.6723975 126.197267,32.7704162 C125.784092,32.8361464 125.370917,32.8684348 124.957743,32.8684348 C124.509327,32.8684348 124.096153,32.8361464 123.718219,32.7704162 C123.305045,32.6723975 122.925897,32.5743788 122.546748,32.41063 C122.202842,32.2803229 121.857719,32.0842856 121.547838,31.8870951 C121.237958,31.6587692 120.962103,31.4292902 120.686248,31.1675228 C120.410393,30.9057553 120.203806,30.6116993 119.997219,30.2853548 C119.790632,29.9912988 119.618071,29.6638012 119.445509,29.3051682 C119.30819,28.945382 119.204895,28.585596 119.135629,28.1935213 Z M113.727904,24.0744312 C113.452049,25.0223294 113.31473,26.0025159 113.31473,27.0161443 C113.31473,27.5396792 113.348755,28.0297725 113.418023,28.5198658 C113.48729,29.0099591 113.590583,29.4677639 113.727904,29.9578572 C113.865223,30.415662 114.037785,30.8734667 114.244372,31.3312716 C114.450959,31.7556348 114.657546,32.181151 114.899375,32.5732257 C115.17523,32.9653003 115.451085,33.3573749 115.760965,33.7171611 C116.03682,34.1092357 116.380727,34.4690219 116.725849,34.7953663 C117.069756,35.1217109 117.448904,35.4492085 117.828052,35.7109759 C118.241228,36.005032 118.654402,36.2667994 119.067576,36.5285669 C119.514777,36.7568927 119.963192,36.95293 120.411608,37.1501205 C120.89405,37.3461578 121.341251,37.476465 121.858934,37.6079253 C122.823818,37.8696928 123.856755,38 124.958958,38 C125.475427,38 125.991895,37.9677115 126.509577,37.9019813 C127.026046,37.8362511 127.542514,37.7382325 128.024956,37.6079253 C128.541424,37.5099067 129.023866,37.3461578 129.472282,37.1501205 C129.919483,36.9540832 130.367898,36.7580459 130.816314,36.5285669 C131.229488,36.2667994 131.642663,36.005032 132.055838,35.7109759 C132.434986,35.4492085 132.814135,35.122864 133.158041,34.7953663 C133.537189,34.4690219 133.84707,34.1092357 134.156951,33.7171611 C134.466832,33.3573749 134.742686,32.9653003 134.9833,32.5732257 C135.223913,32.181151 135.465742,31.7556348 135.638303,31.2978299 C135.844891,30.8734667 136.017452,30.415662 136.154771,29.9578572 C136.292092,29.4677639 136.395385,29.0099591 136.464652,28.5198658 C136.53392,28.0297725 136.567945,27.5396792 136.567945,27.0161443 C136.567945,26.4926092 136.53392,26.0025159 136.464652,25.5124226 C136.395385,25.0223294 136.292092,24.5645245 136.154771,24.1067198 C136.017452,23.6166265 135.844891,23.1588217 135.638303,22.7333054 C135.465742,22.2755006 135.225128,21.8511374 134.9833,21.4579097 C134.742686,21.0335465 134.466832,20.6403187 134.156951,20.2816857 C133.84707,19.889611 133.537189,19.5621134 133.158041,19.2034804 C132.814135,18.877136 132.434986,18.5496383 132.055838,18.2878709 C131.642663,17.9938149 131.229488,17.7320474 130.816314,17.5037216 C130.369113,17.2419541 129.920698,17.0459168 129.472282,16.8498795 C129.023866,16.6861306 128.542639,16.5235349 128.024956,16.3920746 C127.542514,16.2617675 127.026046,16.1637488 126.509577,16.0980187 C125.99311,16.0322885 125.476642,16 124.958958,16 C124.407248,16 123.890781,16.0322885 123.374313,16.0980187 C122.857844,16.1637488 122.341376,16.2617675 121.858934,16.3920746 C121.342467,16.5223817 120.89405,16.6861306 120.411608,16.8498795 C119.964407,17.0459168 119.515992,17.2419541 119.067576,17.5037216 C118.654402,17.7320474 118.241228,17.9938149 117.828052,18.2878709 C117.448904,18.5496383 117.069756,18.8759828 116.725849,19.2034804 C116.381942,19.529825 116.03682,19.889611 115.760965,20.2816857 C115.451085,20.6414718 115.17523,21.0335465 114.899375,21.4579097 C114.658762,21.8499843 114.416933,22.2755006 114.244372,22.7333054 C114.037785,23.1588217 113.865223,23.6166265 113.727904,24.0744312 Z M159.61093,29.9255687 C159.886785,29.0099591 160.024104,28.0297725 160.024104,27.0161443 C160.024104,26.526051 159.990078,26.0359577 159.92081,25.5447112 C159.851543,25.0546178 159.748249,24.5968131 159.61093,24.1390083 C159.473609,23.6812034 159.301049,23.2233987 159.128488,22.7990355 C158.921901,22.3735192 158.681287,21.949156 158.439459,21.5570814 C158.198845,21.1650068 157.92299,20.7729321 157.613109,20.4131461 C157.303229,20.0533599 156.993348,19.7270154 156.648225,19.3995177 C156.269077,19.0731733 155.889929,18.7779642 155.511995,18.5173498 C155.132847,18.2232938 154.719673,17.9615263 154.306498,17.7332006 C153.859297,17.5048747 153.410882,17.3076842 152.962466,17.1450886 C152.515265,16.9490513 152.032823,16.8187441 151.51514,16.6872838 C150.550256,16.4255163 149.51732,16.2952091 148.449142,16.2952091 L140.905063,16.2952091 C140.801769,16.2952091 140.698475,16.3274976 140.629208,16.3609392 C140.55994,16.3609392 140.491888,16.3932278 140.456646,16.458958 C140.422621,16.4912465 140.38738,16.5569767 140.353353,16.6227068 C140.319327,16.688437 140.319327,16.7864556 140.319327,16.8510326 L140.319327,37.2158507 C140.319327,37.411888 140.353353,37.5421951 140.456646,37.5756369 C140.525914,37.6079253 140.593967,37.641367 140.663233,37.6736555 C140.732501,37.6736555 140.800554,37.705944 140.903847,37.705944 L148.447927,37.705944 C148.999637,37.705944 149.516105,37.6736555 149.998547,37.6079253 C150.515014,37.5421951 151.031483,37.4441765 151.549166,37.3138694 C152.031608,37.1835621 152.51405,37.0521018 152.961251,36.8895062 C153.443693,36.6934688 153.890893,36.4974315 154.305283,36.2679526 C154.719673,36.0384736 155.131632,35.8101477 155.544807,35.5483803 C155.923954,35.2543244 156.303103,34.9602684 156.64701,34.6327707 C156.990918,34.3064262 157.302013,33.9789286 157.611894,33.6191425 C157.921775,33.2593563 158.19763,32.8672816 158.438244,32.475207 C158.714097,32.0831324 158.920686,31.6910577 159.127273,31.2655415 C159.301049,30.8411783 159.473609,30.3833735 159.61093,29.9255687 Z M146.004122,32.6066673 L146.004122,21.4279275 L146.004122,21.2976202 L146.141441,21.2976202 L148.173287,21.2976202 C148.586463,21.2976202 148.999637,21.3299088 149.412811,21.3956389 C149.791959,21.4613691 150.205134,21.5916762 150.549041,21.7219834 C150.92819,21.8522906 151.307338,22.0160394 151.617219,22.2455184 C151.961125,22.4415557 152.272222,22.6710346 152.546862,22.8993605 C152.822715,23.161128 153.063329,23.455184 153.305157,23.74924 C153.511746,24.043296 153.718333,24.3707936 153.890893,24.7294266 C154.028213,25.055771 154.166748,25.4489988 154.2348,25.8076318 C154.338094,26.1997064 154.37212,26.5917811 154.37212,27.0172973 C154.37212,27.4093721 154.338094,27.7691581 154.268826,28.1612328 C154.199558,28.5210189 154.096265,28.8473634 153.92492,29.1748611 C153.787599,29.5346472 153.615039,29.8287031 153.408451,30.1227592 C153.235891,30.4168152 152.995277,30.6785826 152.753449,30.9403501 C152.512835,31.1686759 152.23698,31.3981549 151.927099,31.5941923 C151.617219,31.7902296 151.307338,31.9539783 150.962215,32.1177272 C150.652335,32.2814761 150.273186,32.3794947 149.929279,32.4775134 C149.55013,32.575532 149.170983,32.6412621 148.79305,32.6412621 C148.552436,32.6735507 148.344634,32.6735507 148.173287,32.7069923 L148.104021,32.7069923 C148.000726,32.7069923 147.897433,32.7069923 147.760113,32.7069923 C147.65682,32.7392808 147.5195,32.7392808 147.416207,32.7392808 L146.141441,32.7392808 L146.004122,32.7392808 L146.004122,32.6066673 Z M164.329624,16.6215536 C164.295599,16.6872838 164.295599,16.7518608 164.295599,16.8498795 L164.295599,37.1824091 C164.295599,37.2804277 164.295599,37.3461578 164.329624,37.4107348 C164.363651,37.476465 164.398892,37.541042 164.432919,37.5744837 C164.466945,37.6067722 164.536213,37.6402138 164.605479,37.6725024 C164.674747,37.6725024 164.7428,37.7047908 164.846093,37.7047908 L180.381454,37.7047908 C180.518773,37.7047908 180.657309,37.6725024 180.72536,37.6067722 C180.794628,37.5744837 180.862681,37.476465 180.862681,37.3784464 L180.862681,37.3461578 L180.896706,37.3138694 C180.930732,37.2815808 180.965974,37.2481392 180.965974,37.2481392 C180.965974,37.2158507 181,37.1824091 181,37.1501205 L181,33.4888352 C181,33.1290492 180.793413,32.9330118 180.414264,32.9330118 L170.114067,32.9330118 L169.976748,32.9330118 L169.976748,32.8027046 L169.976748,29.1091309 L169.976748,28.9788238 L170.114067,28.9788238 L177.795468,28.9788238 C177.898761,28.9788238 177.968029,28.9788238 178.03608,28.9465352 C178.105348,28.9142468 178.139374,28.8808051 178.173401,28.8485166 C178.276694,28.7504979 178.31072,28.6201908 178.31072,28.5221721 L178.31072,25.3844218 C178.31072,25.2864031 178.31072,25.220673 178.276694,25.156096 C178.276694,25.0903658 178.242668,25.0580773 178.207427,25.0257889 C178.138159,24.9935003 178.070107,24.9600587 178.00084,24.9600587 C177.931572,24.9277702 177.863519,24.9277702 177.794252,24.9277702 L170.112852,24.9277702 L169.975533,24.9277702 L169.975533,24.797463 L169.975533,21.2019079 L169.975533,21.0716008 L170.112852,21.0716008 L180.067927,21.0716008 C180.137194,21.0716008 180.240488,21.0393123 180.308541,21.0393123 C180.377807,21.0070238 180.44586,20.9412936 180.481102,20.8755635 C180.550369,20.8098333 180.584396,20.7452563 180.618421,20.6795262 C180.618421,20.613796 180.652447,20.549219 180.652447,20.4834889 L180.652447,16.8879337 C180.652447,16.789915 180.618421,16.7241849 180.618421,16.6261663 C180.584396,16.5604361 180.549154,16.4958591 180.481102,16.4624174 C180.411834,16.3643988 180.240488,16.2986686 180.067927,16.2986686 L164.842448,16.2986686 C164.739154,16.2986686 164.669887,16.3309571 164.601834,16.3309571 C164.532566,16.3632456 164.49854,16.3966872 164.429273,16.4612643 C164.398892,16.4912465 164.364866,16.5558235 164.329624,16.6215536 Z" id="Shape"></path>
            </g>
        </g>
    </g>
</svg>
